<svg xmlns="http://www.w3.org/2000/svg" width="60" height="60" overflow="visible"><g mask="url(#a)"><svg viewBox="0 0 249 249" fill-rule="evenodd" width="60" height="60" filter="url(#b)" shape-rendering="geometricprecision" text-rendering="geometricprecision" overflow="visible"><defs><filter id="b"><feColorMatrix values="0 0 0 0 1 0 0 0 0 0 0 0 0 0 0 0 0 0 1 0"/></filter></defs><path d="M125 0c68 0 124 56 124 125 0 68-56 124-124 124C56 249 0 193 0 125 0 56 56 0 125 0z"/></svg></g><mask id="a"><svg viewBox="0 0 249 249" fill-rule="evenodd" width="60" height="60" fill="#fff"><path d="M125 0c68 0 124 56 124 125 0 68-56 124-124 124C56 249 0 193 0 125 0 56 56 0 125 0z"/></svg><svg width="40" height="40" x="10" y="10" viewBox="0 0 751.21 754.56"><path d="M376.44 0a376.37 376.37 0 0 1 169 40v339.79h-71.96V84.22a307.26 307.26 0 0 0-97-15.62c-170 0-307.85 137.86-307.85 307.84a306.61 306.61 0 0 0 75.29 201.68v94.33C56.27 603.52 0 496.54 0 376.44 0 168.58 168.57 0 376.44 0z" fill-rule="evenodd"/><path d="M339.63 230.88h71.94v292.79h-71.94z"/><path d="M374.77 754.56a376.42 376.42 0 0 1-169-40V374.77h71.94v295.57a307.3 307.3 0 0 0 97 15.62c170 0 307.84-137.86 307.84-307.84a306.6 306.6 0 0 0-75.28-201.68V82.11C694.93 151 751.21 258 751.21 378.12c0 207.88-168.58 376.44-376.44 376.44z" fill-rule="evenodd"/></svg></mask></svg>